<?xml version="1.0" encoding="utf-8"?>
<!-- Generator: Adobe Illustrator 24.0.2, SVG Export Plug-In . SVG Version: 6.00 Build 0)  -->
<svg version="1.1" xmlns="http://www.w3.org/2000/svg" xmlns:xlink="http://www.w3.org/1999/xlink" x="0px" y="0px"
	 viewBox="0 0 431.6 192" style="enable-background:new 0 0 431.6 192;" xml:space="preserve">
<style type="text/css">
	.st0{fill:url(#SVGID_1_);}
	.st1{fill:#FFFFFF;}
	.st2{fill:#7DCA9E;}
	.st3{fill:#FFA726;}
	.st4{fill:#FB8C00;}
	.st5{fill:#ECEFF1;}
	.st6{fill:url(#SVGID_2_);}
	.st7{fill:url(#SVGID_3_);}
	.st8{fill:#8C9EA5;}
	.st9{fill:#B0BEC5;}
	.st10{fill:url(#SVGID_4_);}
	.st11{fill:#CFD8DC;}
	.st12{fill:url(#SVGID_5_);}
	.st13{fill:url(#SVGID_6_);}
	.st14{fill:url(#SVGID_7_);}
	.st15{fill:url(#SVGID_8_);}
	.st16{fill:#90A4AE;}
	.st17{fill:url(#SVGID_9_);}
	.st18{fill:#37474F;}
	.st19{fill:url(#SVGID_10_);}
	.st20{fill:#FFD740;}
	.st21{fill:url(#SVGID_11_);}
	.st22{fill:url(#SVGID_12_);}
	.st23{fill:#455A64;}
</style>
<g id="Background">
</g>
<g id="Objects">
	<linearGradient id="SVGID_1_" gradientUnits="userSpaceOnUse" x1="247.3235" y1="175.1131" x2="247.3235" y2="-74.3905">
		<stop  offset="6.543500e-04" style="stop-color:#FFFFFF;stop-opacity:0"/>
		<stop  offset="1" style="stop-color:#90A4AE"/>
	</linearGradient>
	<polygon class="st0" points="296,15.9 296,32.1 193.4,32.1 193.4,2 119.8,2 119.8,175.5 193.4,175.5 374.9,176.5 374.9,15.9 	"/>
	<path class="st1" d="M356.2,26.8h-48.6c-0.7,0-1.2-0.6-1.2-1.2l0,0c0-0.7,0.6-1.2,1.2-1.2h48.6c0.7,0,1.2,0.6,1.2,1.2l0,0
		C357.4,26.3,356.9,26.8,356.2,26.8z"/>
	<path class="st1" d="M356.2,36.4h-48.6c-0.7,0-1.2-0.6-1.2-1.2l0,0c0-0.7,0.6-1.2,1.2-1.2h48.6c0.7,0,1.2,0.6,1.2,1.2l0,0
		C357.4,35.9,356.9,36.4,356.2,36.4z"/>
	<path class="st1" d="M356.2,46.1h-48.6c-0.7,0-1.2-0.6-1.2-1.2l0,0c0-0.7,0.6-1.2,1.2-1.2h48.6c0.7,0,1.2,0.6,1.2,1.2l0,0
		C357.4,45.5,356.9,46.1,356.2,46.1z"/>
	<path class="st1" d="M356.2,55.7h-48.6c-0.7,0-1.2-0.6-1.2-1.2l0,0c0-0.7,0.6-1.2,1.2-1.2h48.6c0.7,0,1.2,0.6,1.2,1.2l0,0
		C357.4,55.1,356.9,55.7,356.2,55.7z"/>
	<path class="st1" d="M356.2,65.3h-48.6c-0.7,0-1.2-0.6-1.2-1.2l0,0c0-0.7,0.6-1.2,1.2-1.2h48.6c0.7,0,1.2,0.6,1.2,1.2l0,0
		C357.4,64.7,356.9,65.3,356.2,65.3z"/>
	<path class="st1" d="M356.2,74.9h-48.6c-0.7,0-1.2-0.6-1.2-1.2l0,0c0-0.7,0.6-1.2,1.2-1.2h48.6c0.7,0,1.2,0.6,1.2,1.2l0,0
		C357.4,74.3,356.9,74.9,356.2,74.9z"/>
	<rect x="128.2" y="11.1" class="st1" width="6.3" height="6.3"/>
	<rect x="141" y="11.1" class="st1" width="6.3" height="6.3"/>
	<rect x="153.7" y="11.1" class="st1" width="6.3" height="6.3"/>
	<rect x="166.5" y="11.1" class="st1" width="6.3" height="6.3"/>
	<rect x="128.2" y="26.8" class="st1" width="6.3" height="6.3"/>
	<rect x="141" y="26.8" class="st1" width="6.3" height="6.3"/>
	<rect x="153.7" y="26.8" class="st1" width="6.3" height="6.3"/>
	<rect x="166.5" y="26.8" class="st1" width="6.3" height="6.3"/>
	<rect x="128.2" y="42.6" class="st1" width="6.3" height="6.3"/>
	<rect x="141" y="42.6" class="st1" width="6.3" height="6.3"/>
	<rect x="153.7" y="42.6" class="st1" width="6.3" height="6.3"/>
	<rect x="166.5" y="42.6" class="st1" width="6.3" height="6.3"/>
	<path class="st2" d="M254.9,139.7c-5.2,11.2-12.3,11.2-14.6,11.2c-5.6,0-10.3-3.5-13.8-10.5c-4.3-8.4-6.5-21-6.5-36.5
		c0-0.2,0-0.4,0-0.6h-29.7c0,0.1,0,0.3,0,0.4v0l0,0c0.2,21.9,4.7,40.2,13.1,52.8c8.7,13.1,21.1,20,35.9,20
		c16.3,0,29.6-7.1,38.5-20.4c8.3-12.6,12.6-30.4,12.8-52.8h-29.7C260.8,118.8,258.8,131.4,254.9,139.7z"/>
	<path class="st3" d="M231.4,182.1h-28.2l1.9-10.9l1.9-10.8l1.9-10.9l1.9-10.8l1.4-8.1c0.3-1.6,1.6-2.7,3.2-2.7h3.7
		c1.6,0,2.9,1.1,3.2,2.7l1.4,8.1l1.9,10.8l1.9,10.9l1.9,10.8L231.4,182.1z"/>
	<polygon class="st4" points="240.2,188.5 194.4,188.5 203.2,182.1 231.4,182.1 	"/>
	<path class="st3" d="M237.7,192H197c-1.4,0-2.5-1.1-2.5-2.5v-1h45.7v1C240.2,190.8,239.1,192,237.7,192z"/>
	<polygon class="st5" points="225.7,149.5 208.9,149.5 210.8,138.7 223.8,138.7 	"/>
	<polygon class="st5" points="229.5,171.2 205.1,171.2 207,160.4 227.6,160.4 	"/>
	<linearGradient id="SVGID_2_" gradientUnits="userSpaceOnUse" x1="211.9942" y1="158.081" x2="232.5011" y2="160.9341">
		<stop  offset="6.543500e-04" style="stop-color:#FFFFFF;stop-opacity:0"/>
		<stop  offset="1" style="stop-color:#FFA726"/>
		<stop  offset="1" style="stop-color:#000000"/>
	</linearGradient>
	<path class="st6" d="M240.2,190.8v-2.3l-8.8-6.4l0,0h0l-1.9-10.9l-1.9-10.8l-1.9-10.9l-1.9-10.8l-1.4-8.1c-0.3-1.6-1.6-2.7-3.2-2.7
		l5.6,54.2l6.7,6.4v3.5h7.6C239.6,192,240.2,191.4,240.2,190.8z"/>
	<linearGradient id="SVGID_3_" gradientUnits="userSpaceOnUse" x1="228.5529" y1="156.399" x2="183.7944" y2="164.6017">
		<stop  offset="6.543500e-04" style="stop-color:#FFFFFF;stop-opacity:0"/>
		<stop  offset="1" style="stop-color:#FFA726"/>
		<stop  offset="1" style="stop-color:#FFFFFF"/>
	</linearGradient>
	<path class="st7" d="M194.4,190.8v-2.3l8.8-6.4l0,0h0l1.9-10.9l1.9-10.8l1.9-10.9l1.9-10.8l1.4-8.1c0.3-1.6,1.6-2.7,3.2-2.7
		l-5.6,54.2l-6.7,6.4v3.5h-7.6C195,192,194.4,191.4,194.4,190.8z"/>
	<path class="st2" d="M291.9,50.1C283.3,36.9,270.6,30,255,30c-15.4,0-28.3,6.9-37.5,20c-9,12.8-13.7,31.2-13.8,53.2h29.7
		c0.1-15.7,2.4-28.5,6.8-37c3.6-7,8.3-10.6,13.7-10.6c7.6,0,20.4,6.1,20.4,47c0,0.2,0,0.4,0,0.6h29.7c0-0.5,0-0.9,0-1.4
		C304.1,80,300,62.6,291.9,50.1z"/>
	<path class="st2" d="M405.1,110.8h-12.2V36v-6h-6h-19h-3.1l-1.8,2.6l-58,83.1l-1.1,1.6v1.9v11.6v6h6h54.4v29.4v6h6h16.6h6v-6v-29.4
		h12.2h6v-6v-13.8v-6H405.1z M339.1,110.8l25.1-34.9v34.9H339.1z"/>
	<g>
		<path class="st8" d="M72.3,172.4c-0.9,0-1.8-0.7-1.9-1.7L51.6,3.7c-0.1-1,0.6-2,1.7-2.1c1-0.1,2,0.6,2.1,1.7l18.8,167.1
			c0.1,1-0.6,2-1.7,2.1C72.5,172.4,72.4,172.4,72.3,172.4z"/>
		<path class="st8" d="M123.3,172.4c-0.9,0-1.8-0.7-1.9-1.7L102.6,3.7c-0.1-1,0.6-2,1.7-2.1c1-0.1,2,0.6,2.1,1.7l18.8,167.1
			c0.1,1-0.6,2-1.7,2.1C123.5,172.4,123.4,172.4,123.3,172.4z"/>
		<path class="st8" d="M106.5,22.8h-51c-1,0-1.9-0.8-1.9-1.9c0-1,0.8-1.9,1.9-1.9h51c1,0,1.9,0.8,1.9,1.9
			C108.4,21.9,107.5,22.8,106.5,22.8z"/>
		<path class="st8" d="M107.5,39.4H57.6c-1,0-1.9-0.8-1.9-1.9c0-1,0.8-1.9,1.9-1.9h49.9c1,0,1.9,0.8,1.9,1.9
			C109.4,38.5,108.6,39.4,107.5,39.4z"/>
		<path class="st8" d="M108.6,55.9H59.7c-1,0-1.9-0.8-1.9-1.9c0-1,0.8-1.9,1.9-1.9h48.9c1,0,1.9,0.8,1.9,1.9
			C110.5,55.1,109.6,55.9,108.6,55.9z"/>
		<path class="st8" d="M112.1,72.5H61.9c-1,0-1.9-0.8-1.9-1.9c0-1,0.8-1.9,1.9-1.9h50.1c1,0,1.9,0.8,1.9,1.9
			C114,71.7,113.1,72.5,112.1,72.5z"/>
		<path class="st8" d="M113.9,89.1H63.5c-1,0-1.9-0.8-1.9-1.9c0-1,0.8-1.9,1.9-1.9h50.4c1,0,1.9,0.8,1.9,1.9
			C115.8,88.2,115,89.1,113.9,89.1z"/>
		<path class="st8" d="M115.8,105.7H65.3c-1,0-1.9-0.8-1.9-1.9c0-1,0.8-1.9,1.9-1.9h50.5c1,0,1.9,0.8,1.9,1.9
			C117.7,104.8,116.9,105.7,115.8,105.7z"/>
	</g>
	<path class="st9" d="M104.9,6.9H50.1c-1.9,0-3.5-1.6-3.5-3.5l0,0c0-1.9,1.6-3.5,3.5-3.5h54.8c1.9,0,3.5,1.6,3.5,3.5l0,0
		C108.3,5.4,106.8,6.9,104.9,6.9z"/>
	<g>
		<path class="st9" d="M83.4,172.4c-0.1,0-0.1,0-0.2,0c-1-0.1-1.8-1-1.7-2.1L100.4,3.3c0.1-1,1-1.8,2.1-1.7c1,0.1,1.8,1,1.7,2.1
			L85.3,170.8C85.1,171.7,84.3,172.4,83.4,172.4z"/>
		<path class="st9" d="M32.4,172.4c-0.1,0-0.1,0-0.2,0c-1-0.1-1.8-1-1.7-2.1L49.3,3.3c0.1-1,1-1.8,2.1-1.7c1,0.1,1.8,1,1.7,2.1
			L34.2,170.8C34.1,171.7,33.3,172.4,32.4,172.4z"/>
		<path class="st9" d="M100.3,22.8h-51c-1,0-1.9-0.8-1.9-1.9c0-1,0.8-1.9,1.9-1.9h51c1,0,1.9,0.8,1.9,1.9
			C102.1,21.9,101.3,22.8,100.3,22.8z"/>
		<path class="st9" d="M98.1,39.4H48.2c-1,0-1.9-0.8-1.9-1.9c0-1,0.8-1.9,1.9-1.9h49.9c1,0,1.9,0.8,1.9,1.9
			C100,38.5,99.2,39.4,98.1,39.4z"/>
		<path class="st9" d="M96,55.9H47.1c-1,0-1.9-0.8-1.9-1.9c0-1,0.8-1.9,1.9-1.9H96c1,0,1.9,0.8,1.9,1.9C97.9,55.1,97,55.9,96,55.9z"
			/>
		<path class="st9" d="M93.8,72.5H43.6c-1,0-1.9-0.8-1.9-1.9c0-1,0.8-1.9,1.9-1.9h50.1c1,0,1.9,0.8,1.9,1.9
			C95.7,71.7,94.8,72.5,93.8,72.5z"/>
		<path class="st9" d="M92.2,89.1H41.8c-1,0-1.9-0.8-1.9-1.9c0-1,0.8-1.9,1.9-1.9h50.4c1,0,1.9,0.8,1.9,1.9
			C94.1,88.2,93.3,89.1,92.2,89.1z"/>
		<path class="st9" d="M90.4,105.7H39.9c-1,0-1.9-0.8-1.9-1.9c0-1,0.8-1.9,1.9-1.9h50.5c1,0,1.9,0.8,1.9,1.9
			C92.3,104.8,91.4,105.7,90.4,105.7z"/>
	</g>
	<path class="st2" d="M137.6,124.6l62.4-41.2l5-3.3l-3.3-5l-10.5-15.9l-1.7-2.6l-3.1-0.1L85.2,53.8l-1.9-0.1l-1.6,1L72,61.2l-5,3.3
		l3.3,5l30,45.4l-24.5,16.2l-5,3.3l3.3,5l9.2,13.9l3.3,5l5-3.3l24.5-16.2l6.7,10.2l3.3,5l5-3.3l11.5-7.6l5-3.3l-3.3-5L137.6,124.6z
		 M108,79.8l42.9,1.7l-29.1,19.2L108,79.8z"/>
	<g>
		<path class="st9" d="M49.8,150.7c-8.6,0-15.6,7-15.6,15.6c0,8.6,7,15.6,15.6,15.6h131.8v-31.2H49.8z"/>
		<linearGradient id="SVGID_4_" gradientUnits="userSpaceOnUse" x1="107.8618" y1="140.6425" x2="107.8618" y2="173.4054">
			<stop  offset="9.914300e-04" style="stop-color:#FFFFFF;stop-opacity:0"/>
			<stop  offset="1" style="stop-color:#B0BEC5"/>
		</linearGradient>
		<path class="st10" d="M49.8,150.7c-8.6,0-15.6,7-15.6,15.6c0,8.6,7,15.6,15.6,15.6h131.8v-31.2H49.8z"/>
		
			<ellipse transform="matrix(0.9254 -0.3791 0.3791 0.9254 -49.4717 81.2296)" class="st11" cx="181.6" cy="166.3" rx="15.6" ry="15.6"/>
		<circle class="st9" cx="181.6" cy="166.3" r="11.2"/>
		<linearGradient id="SVGID_5_" gradientUnits="userSpaceOnUse" x1="209.5869" y1="166.252" x2="169.1054" y2="166.252">
			<stop  offset="9.914300e-04" style="stop-color:#FFFFFF;stop-opacity:0"/>
			<stop  offset="1" style="stop-color:#B0BEC5"/>
		</linearGradient>
		<circle class="st12" cx="181.6" cy="166.3" r="11.2"/>
	</g>
	<g>
		<path class="st9" d="M33,122.9c-8.6,0-15.6,7-15.6,15.6c0,8.6,7,15.6,15.6,15.6h131.8v-31.2H33z"/>
		<linearGradient id="SVGID_6_" gradientUnits="userSpaceOnUse" x1="91.0676" y1="121.0698" x2="91.0676" y2="160.326">
			<stop  offset="9.914300e-04" style="stop-color:#FFFFFF;stop-opacity:0"/>
			<stop  offset="1" style="stop-color:#B0BEC5"/>
		</linearGradient>
		<path class="st13" d="M33,122.9c-8.6,0-15.6,7-15.6,15.6c0,8.6,7,15.6,15.6,15.6h131.8v-31.2H33z"/>
		
			<ellipse transform="matrix(0.7071 -0.7071 0.7071 0.7071 -49.6834 157.0702)" class="st11" cx="164.8" cy="138.5" rx="15.6" ry="15.6"/>
		<circle class="st9" cx="164.8" cy="138.5" r="11.2"/>
		<linearGradient id="SVGID_7_" gradientUnits="userSpaceOnUse" x1="192.7928" y1="138.5083" x2="152.3112" y2="138.5083">
			<stop  offset="9.914300e-04" style="stop-color:#FFFFFF;stop-opacity:0"/>
			<stop  offset="1" style="stop-color:#B0BEC5"/>
		</linearGradient>
		<circle class="st14" cx="164.8" cy="138.5" r="11.2"/>
	</g>
	<g>
		<path class="st9" d="M15.6,150.7c-8.6,0-15.6,7-15.6,15.6c0,8.6,7,15.6,15.6,15.6h131.8v-31.2H15.6z"/>
		
			<ellipse transform="matrix(0.921 -0.3896 0.3896 0.921 -53.1307 70.5661)" class="st11" cx="147.4" cy="166.3" rx="15.6" ry="15.6"/>
		<circle class="st9" cx="147.4" cy="166.3" r="11.2"/>
		<linearGradient id="SVGID_8_" gradientUnits="userSpaceOnUse" x1="175.4164" y1="166.252" x2="134.9349" y2="166.252">
			<stop  offset="9.914300e-04" style="stop-color:#FFFFFF;stop-opacity:0"/>
			<stop  offset="1" style="stop-color:#B0BEC5"/>
		</linearGradient>
		<circle class="st15" cx="147.4" cy="166.3" r="11.2"/>
	</g>
	<path class="st16" d="M428.2,151.3v-36.8c0-2.4-2.3-4.3-5.1-4.3h-36.3c-2.8,0-5.1,1.9-5.1,4.3v36.8c0,4,2.3,7.8,6.2,10l11.6,6.7
		c3.3,1.9,7.6,1.9,10.9,0l11.6-6.7C425.9,159,428.2,155.3,428.2,151.3z"/>
	
		<linearGradient id="SVGID_9_" gradientUnits="userSpaceOnUse" x1="826.7053" y1="-352.8362" x2="849.6199" y2="-352.8362" gradientTransform="matrix(0 -1 1 0 761.3805 959.7812)">
		<stop  offset="6.543500e-04" style="stop-color:#FFFFFF;stop-opacity:0"/>
		<stop  offset="1" style="stop-color:#90A4AE"/>
		<stop  offset="1" style="stop-color:#FFA726"/>
		<stop  offset="1" style="stop-color:#F6A125"/>
		<stop  offset="1" style="stop-color:#C8831E"/>
		<stop  offset="1" style="stop-color:#9D6717"/>
		<stop  offset="1" style="stop-color:#774E12"/>
		<stop  offset="1" style="stop-color:#57390D"/>
		<stop  offset="1" style="stop-color:#3B2709"/>
		<stop  offset="1" style="stop-color:#251806"/>
		<stop  offset="1" style="stop-color:#140D03"/>
		<stop  offset="1" style="stop-color:#090601"/>
		<stop  offset="1" style="stop-color:#020100"/>
		<stop  offset="1" style="stop-color:#000000"/>
	</linearGradient>
	<path class="st17" d="M404.7,110.2v19c0,2.1,1.7,3.9,3.9,3.9c2.1,0,3.9-1.7,3.9-3.9v-19H404.7z"/>
	<path class="st18" d="M408.9,37.5v91.7c0,2.1-1.7,3.9-3.9,3.9l0,0c-2.1,0-3.9-1.7-3.9-3.9V37.5H408.9z"/>
	
		<linearGradient id="SVGID_10_" gradientUnits="userSpaceOnUse" x1="877.3229" y1="-375.39" x2="871.1384" y2="-329.6783" gradientTransform="matrix(0 -1 1 0 761.3805 959.7812)">
		<stop  offset="6.543500e-04" style="stop-color:#FFFFFF;stop-opacity:0"/>
		<stop  offset="1" style="stop-color:#455A64"/>
		<stop  offset="1" style="stop-color:#FFA726"/>
		<stop  offset="1" style="stop-color:#000000"/>
	</linearGradient>
	<path class="st19" d="M403.1,132.6c0.6,0.3,1.2,0.5,1.9,0.5c2.1,0,3.9-1.7,3.9-3.9V37.5H405v91.7
		C405,130.6,404.2,131.9,403.1,132.6z"/>
	<path class="st18" d="M423.8,4.3v16.6c0,10.4-8.5,18.8-18.8,18.8c-10.4,0-18.8-8.5-18.8-18.8V4.3c0-1.3,1-2.3,2.3-2.3h33.2
		C422.8,2,423.8,3.1,423.8,4.3z M390.7,20.9c0,7.9,6.4,14.3,14.3,14.3c7.9,0,14.3-6.4,14.3-14.3V6.6h-28.6V20.9z"/>
	<path class="st20" d="M414.2,1.8V7c0,0.7-0.6,1.3-1.3,1.3h-16.6c-0.7,0-1.3-0.6-1.3-1.3V1.8c0-0.7,0.6-1.3,1.3-1.3H413
		C413.7,0.5,414.2,1.1,414.2,1.8z"/>
	
		<linearGradient id="SVGID_11_" gradientUnits="userSpaceOnUse" x1="801.7465" y1="-356.2027" x2="837.1166" y2="-360.2137" gradientTransform="matrix(0 -1 1 0 761.3805 959.7812)">
		<stop  offset="6.543500e-04" style="stop-color:#FFFFFF;stop-opacity:0"/>
		<stop  offset="1" style="stop-color:#90A4AE"/>
		<stop  offset="1" style="stop-color:#FFA726"/>
		<stop  offset="1" style="stop-color:#F6A125"/>
		<stop  offset="1" style="stop-color:#C8831E"/>
		<stop  offset="1" style="stop-color:#9D6717"/>
		<stop  offset="1" style="stop-color:#774E12"/>
		<stop  offset="1" style="stop-color:#57390D"/>
		<stop  offset="1" style="stop-color:#3B2709"/>
		<stop  offset="1" style="stop-color:#251806"/>
		<stop  offset="1" style="stop-color:#140D03"/>
		<stop  offset="1" style="stop-color:#090601"/>
		<stop  offset="1" style="stop-color:#020100"/>
		<stop  offset="1" style="stop-color:#000000"/>
	</linearGradient>
	<path class="st21" d="M383.1,156.4c1.1,1.9,2.7,3.6,4.9,4.9l11.6,6.7c3.3,1.9,7.6,1.9,10.9,0l11.6-6.7c2.1-1.2,3.8-2.9,4.9-4.9
		c-3.2-8-11.8-13.8-21.9-13.8C394.9,142.6,386.3,148.4,383.1,156.4z"/>
	<path class="st11" d="M259.5,176.3c-6,0-8.9-7.5-4.3-11.4c0.7-0.6,1.5-1.1,2.3-1.5c3.3-1.7,7.2-1.8,10.7-0.5
		c2.2,0.8,4.7,0.3,6.5-1.2c2.6-2.3,6.2-3.6,9.8-3.7c3.4-0.1,6.7,0.7,10,1.7c2.6,0.9,5.6-0.1,7.2-2.3c7-9.6,18.4-15.7,30.2-17.8
		c7.1-1.3,14.7-1.3,21.4,1.3c5.1,2,9.6,5.6,12.4,10.2c1.4,2.3,4.1,3.5,6.8,3c5.1-1,10.9,0.9,14.5,4.7c2.1,2.2,5.3,2.8,7.9,1.4
		c2.3-1.3,4.8-2.2,7.5-2.3c3-0.1,6.2,1.2,8.2,3.4c1.6,1.8,4,2.5,6.4,2.1c1.8-0.3,3.7,0,5.3,0.9c0,0,0.1,0,0.1,0.1
		c5.7,3.3,3.2,12-3.4,12L259.5,176.3z"/>
	<linearGradient id="SVGID_12_" gradientUnits="userSpaceOnUse" x1="356.5737" y1="149.4654" x2="310.9434" y2="203.0545">
		<stop  offset="9.914300e-04" style="stop-color:#FFFFFF;stop-opacity:0"/>
		<stop  offset="1" style="stop-color:#B0BEC5"/>
	</linearGradient>
	<path class="st22" d="M259.5,176.3c-6,0-8.9-7.5-4.3-11.4c0.7-0.6,1.5-1.1,2.3-1.5c3.3-1.7,7.2-1.8,10.7-0.5
		c2.2,0.8,4.7,0.3,6.5-1.2c2.6-2.3,6.2-3.6,9.8-3.7c3.4-0.1,6.7,0.7,10,1.7c2.6,0.9,5.6-0.1,7.2-2.3c7-9.6,18.4-15.7,30.2-17.8
		c7.1-1.3,14.7-1.3,21.4,1.3c5.1,2,9.6,5.6,12.4,10.2c1.4,2.3,4.1,3.5,6.8,3c5.1-1,10.9,0.9,14.5,4.7c2.1,2.2,5.3,2.8,7.9,1.4
		c2.3-1.3,4.8-2.2,7.5-2.3c3-0.1,6.2,1.2,8.2,3.4c1.6,1.8,4,2.5,6.4,2.1c1.8-0.3,3.7,0,5.3,0.9c0,0,0.1,0,0.1,0.1
		c5.7,3.3,3.2,12-3.4,12L259.5,176.3z"/>
	<path class="st23" d="M428.9,169.6H249.5c-1.5,0-2.7,1.2-2.7,2.7v7c0,1.5,1.2,2.7,2.7,2.7h179.5c1.5,0,2.7-1.2,2.7-2.7v-7
		C431.6,170.7,430.4,169.6,428.9,169.6z"/>
</g>
<g id="Designed_by_Freepik">
</g>
</svg>
