<?xml version="1.0" encoding="utf-8"?>
<!-- Generator: Adobe Illustrator 24.0.2, SVG Export Plug-In . SVG Version: 6.00 Build 0)  -->
<svg version="1.1" id="Layer_1" xmlns="http://www.w3.org/2000/svg" xmlns:xlink="http://www.w3.org/1999/xlink" x="0px" y="0px"
	 viewBox="0 0 755.2 413" style="enable-background:new 0 0 755.2 413;" xml:space="preserve">
<style type="text/css">
	.st0{fill:#7DCA9E;}
	.st1{fill:#81C2DA;}
	.st2{fill:#B8E0C9;}
	.st3{fill:#72CAC1;}
</style>
<path class="st0" d="M362,0v124.6c1.3-1.3,3.6-2.7,6.3-4.5c3.1-2.2,9.4-4.9,18.8-8.1c9.4-3.1,19.7-4.9,30-4.9
	c27.8,0,51.1,9.4,69.9,28.7c18.8,18.8,28.2,41.7,28.2,69c0,26.9-9.4,49.7-28.7,69c-18.8,19.3-42.1,28.7-69.5,28.7
	c-26.4,0-49.7-9-69-26.4c-19.3-17.5-29.1-41.7-29.1-72.6V0H362z M417.1,148.3c-30.9,0-55.1,23.8-55.1,56.5
	c0,32.3,23.3,56.5,55.1,56.5c30.9,0,55.1-24.2,55.1-56.5C472.2,172.1,448,148.3,417.1,148.3z"/>
<path class="st1" d="M0,301.4V1.1h43v300.2H0z"/>
<path class="st2" d="M588,135.8c19.3-19.3,42.1-28.7,69.5-28.7c26.9,0,49.7,9.4,69,28.7c19.3,19.3,28.7,42.1,28.7,69
	c0,27.3-9.4,50.2-28.7,69.5c-19.3,18.8-42.1,28.2-69,28.2c-27.3,0-50.2-9.4-69.5-28.2c-19.3-19.3-28.7-42.1-28.7-69.5
	C559.3,177.9,568.7,155.1,588,135.8z M602.3,204.8c0,16.6,5.4,30,15.7,40.8c10.8,10.3,23.7,15.7,39.4,15.7c15.7,0,28.7-5.4,39-15.7
	c10.8-10.8,16.1-24.2,16.1-40.8c0-16.6-5.4-30-16.1-40.3c-10.3-10.8-23.3-16.1-39-16.1c-15.7,0-28.7,5.4-39.4,16.1
	C607.7,174.8,602.3,188.2,602.3,204.8z"/>
<g>
	<path class="st3" d="M189,302.7c22,0,41.2-7.6,57.4-22.4c16.1-14.8,24.2-37.6,24.2-67.7V109.6h-43v103.1
		c0,31.8-15.2,48.8-38.5,48.8c-23.3,0-38.1-16.6-38.1-48.8V109.6h-43v103.1c0,30.5,8.1,53.3,23.8,68.1
		C147.8,295.5,167.1,302.7,189,302.7z"/>
	<path class="st3" d="M230,326.3c-1,29.7-14.7,47.7-39.3,47.7c-26.9,0-41.7-21.1-42.1-46.6h-43c0.4,25.5,8.5,46.2,24.6,61.8
		c16.6,15.7,36.7,23.8,61.4,23.8c47.4,0,80.1-32.7,81.4-86.6H230z"/>
</g>
</svg>
